<?xml version="1.0" encoding="utf-8"?>

<!DOCTYPE svg PUBLIC "-//W3C//DTD SVG 1.1//EN" "http://www.w3.org/Graphics/SVG/1.1/DTD/svg11.dtd">
<svg version="1.1" id="Layer_1" xmlns="http://www.w3.org/2000/svg" xmlns:xlink="http://www.w3.org/1999/xlink" x="0px" y="0px"
	 viewBox="427.1176 -24.8005 1063.8823 2027.8016" enable-background="new 427.1176 -24.8005 1063.8823 2027.8016"
	 xml:space="preserve">
<path d="M934.44,67.26c8.07-3.37,17.02-2.53,25.55-2.6c18.98-0.07,37.78,2.79,56.59,4.96c14.6099,1.71,28.4,7.95,40.15,16.65
	c10.49,8.06,19.87,17.59,27.8201,28.16c10.2899,14.14,15.97,30.97,25.5199,45.55c2.0601,3.13,7.0601,4.59,6.4901,8.99
	c0.0699,3.7,1.4099,7.23,3.0699,10.49c1.03,2.37,3.92,2.32,5.97,3.29c2.3201,1.13,4.22,2.99,5.9,4.92c1.7,3.39,1.87,7.45,4.4,10.46
	c2.97,3.64,1.9,8.85-0.3101,12.59c-2.34,3.75-1.3199,9.5,2.37,11.91c5.0801,0.46,9.9401-1.5,14.9601-1.91
	c3.51,2.63,6.08,7.83,3.2999,11.88c-2.2999,3.75-2.3199,8.6-0.38,12.51c2.2001,5.6,7.9701,9.08,8.8101,15.33
	c2.63,1.08,5.61,2.12,6.26,5.27c-1.88,1.41-4.1,1.98-6.41,2.02c-0.77-1.65-1.1899-3.4-1.41-5.18c-2.21-0.11-4.4099-0.04-6.59,0.19
	c-0.52,3.65,2.98,5.52,5.59,7.18c-3.38,2.28-5.2999,6.02-4.52,10.13c0.88,3.9-2.6699,7.46-0.87,11.27
	c1.65,2.52,4.7301,3.26,7.54,3.6c0.3101,2.04,0.76,4.06,1.29,6.07c4.63,0.88,9.58-4.56,5.95-8.59c-1.96-0.35-3.9399-0.14-5.89-0.03
	c-0.0299-1.64-0.0599-3.28-0.0599-4.92c3.8199-0.49,8.1-0.48,11.01,2.47c0.3199,5.36-3.41,10.03-7.1001,13.53
	c-1.62,2.03-2.8999,4.35-4,6.7c0.4401,3.77,5.3701,6.15,8.4501,3.59c1.5699-1.45,4.87-2.61,5.83,0.1c-3.1,3.51-7.88,6.94-6.37,12.3
	c-1.45,0.51-2.9,1.02-4.3099,1.57c10.38,5.29,17.2899,15.02,24.3099,23.95c21.8101,29.61,41.2001,60.98,64.4401,89.53
	c23.9099,29.3,49.77,56.89,74.95,85.08c6.95,7.74,13.83,15.56,20.3101,23.72c4.23,5.54,7.63,11.65,11.48,17.45
	c4.86,7.69,9.8199,16.18,9.27,25.61c0.01,7.03-5.9801,11.7-10.0601,16.69c-23.25,24.75-48.3199,47.7-72.98,71.02
	c-37.39,34.97-75.37,69.29-112.64,104.38c-10.14,8.69-15.76,21.13-21.4399,32.92c1.87,3.01,5.3199,4.87,7.8099,7.44
	c15.8,14.17,31.46,28.58,45.59,44.45c4.8101,5.59,9.6801,11.31,12.86,18.03c2.3301,4.68,1.4801,10.39-1.1899,14.74
	c-6.22,10.54-17.88,16.26-24.65,26.35c-2.28,3.5-4.0499,8.03-2.35,12.14c2.4301,6.4,6.66,11.89,10.74,17.31
	c12.72,16.16,27.04,30.95,40.35,46.6c4.26,5.19,8.77,10.34,11.66,16.46c1.8101,3.59,0.34,7.85-2.1899,10.7
	c-5.7001,6.33-14.3301,8.78-20.51,14.53c-1.7101,1.6299-3.62,4.1499-2.38,6.61c1.61,3.24,4.22,5.85,6.72,8.4299
	c13.88,13.8101,29.9,25.4501,42.5,40.53c3.53,4.51,7.3099,9.62,7.12,15.64c0.16,5.29-2.38,10.1899-5.39,14.38
	c-5.61,7.62-13.09,13.74-18.15,21.7899c-2.4199,4.02-4.39,9.2001-2.22,13.75c2.73,5.89,7.33,10.64,11.77,15.29
	c13.76,13.92,29.16,26.12,42.65,40.34c4.49,4.9601,9.0499,10.1001,11.6899,16.3401c2.58,6.08,0.77,13.1-2.8099,18.37
	c-7.1801,10.99-19.1001,17.7-26.5801,28.45c-2.63,3.8101-4.74,8.84-2.83,13.42c2.3199,5.53,6.88,9.71,11.1799,13.75
	c13.3401,11.8099,28.4601,21.39,42,32.96c4.92,4.4301,10.0801,8.98,13.04,15.03c2.62,5.4399,1.5601,11.9-1.09,17.12
	c-5.4301,10.8-15.6801,18.1799-21.24,28.89c-2.2001,4.37-3.75,9.5599-2.16,14.39c2.1,6.71,5.66,12.84,9.16,18.9099
	c17.38,28.8301,37.83,55.64,56.3199,83.75c3.23,5.12,6.73,10.16,8.98,15.8301c1.14,2.61,0.51,5.75-1.47,7.7899
	c-6.22,6.8-16.7999,6.4701-23.29,12.8201c-2.3999,2.2-0.35,5.26,0.52,7.6799c7.51,16.28,17.35,31.3201,26.1901,46.89
	c9.23,15.6901,18.6,31.36,25.99,48.03c1.9199,5,4.61,10.8,1.96,16.05c-2.85,5.74-8.7999,8.9199-14.3099,11.64
	c-6.9501,3.45-14.87,5.8199-20.13,11.83c-3.52,3.9-4.02,9.53-3.3,14.53c1.7,12.74,6.47,24.77,9.87,37.09
	c1.28,4.8,2.6901,9.71,2.52,14.74c-0.51,6.55-5.05,11.8-9.76,15.98c-4.23,3.8-9.0599,8.0801-9.67,14.11
	c-0.9299,9.16,5.15,17.0701,5.6801,26.05c0.08,3.8199-1.53,7.89-4.9301,9.91c-6.4099,4.0299-13.59,6.6-20.5699,9.45
	c-21.0601,8.16-42.7,14.73-64.49,20.59c-3.91,0.8501-7.79,2.3-11.83,2.15c-1.51,0.04-2.4-1.2-2.9501-2.38
	c-0.62-3.62,0.22-7.25,0.84-10.79c-3.12,3.8301-6.01,8.17-10.6399,10.3301c-13.79,6.99-28.17,12.7-42.4601,18.5699
	c-8.6899,3.28-17.37,7.28-26.77,7.89c-8.37,0.99-16.7899-0.1799-25.13-0.9199c-7.4199-0.4601-14.22-5.2401-21.7899-3.6801
	c-4.14,1.48-7.41,4.55-10.8401,7.1899c-8.6799,6.88-17.2799,14.52-28.0499,17.88c-6.26,2.0701-13.02,1.5801-19.34,0.1001
	c-11.6901-2.74-22.76-7.55-33.55-12.74c-7.39-3.3301-14.45-7.4501-22.2-9.9c-4.52-1.5-9.4801-3.66-14.2301-1.85
	c-9.4399,3.3899-18.7,7.45-28.53,9.61c-7.88,1.75-16.44,2.4099-24-0.91c-14.39-6.08-21.88-21.84-36.51-27.5
	c-12.62-4.4401-25.8799,0.03-38.09,3.65c-8.88,2.9299-18.29,3.3099-27.3,5.64c-9.62,2.37-20.11,3.38-29.5-0.4301
	c-9.67-3.9399-16.5-12.26-25.34-17.53c-6.09-3.7-13.12-5.2899-19.92-7.11c-10.16-2.61-21.04-2.62-31.07,0.51
	c-10.78,3.96-17.9,13.5601-27.4,19.5601c-3.67,2.45-8.69,3.3899-12.67,1.11c-8.65-5.12-9.87-17.5801-19.46-21.5601
	c-6.91-1.6-14.11-1.02-21.16-1.1799c-30.04,0.1699-60.03,2.71-90.08,2.2c-2.82-0.1-6.16-0.3-7.99-2.76
	c-3.59-4.42-2.38-10.5499-4.49-15.54c-1.2-2.9299-4.85-2.46-7.41-2.6499c-15.67-0.37-31.35,0.2999-47.03,0.34
	c-10.87-0.28-22,0.3199-32.54-2.75c-8.27-3.22-16.24-7.37-23.39-12.66c-5.81-4.59-11.69-10.33-13.04-17.9199
	c-0.95-5.42,2.96-9.8501,6.36-13.51c12.99-13.27,29.08-22.88,43.13-34.92c3.97-3.27,6.15-8.05,8.57-12.45
	c2.46-5.04,4.59-11.0801,2.3799-16.5701c-3.81-4.13-9.25-6.21-14.0699-8.9c-11.51-5.9399-23.16-11.7699-33.77-19.26
	c-6.4-4.8199-12.92-10.4199-15.77-18.1399c-2.24-6.77,0.45-13.8,3.34-19.91c7.89-16.0701,18.61-30.5,29.22-44.85
	c10.46-13.8301,21.28-27.39,32.01-41.01c3.39-4.6,7.1-9.02,9.91-14.01c1.3199-2.05-0.54-4.34-1.7401-5.9601
	c-3.62-4.2999-9.14-8.23-8.97-14.4399c0.74-4.8,3.03-9.17,4.77-13.66c14.05-31.95,29.73-63.21,42.05-95.9099
	c2.65-7.3401,5.54-14.7401,6.38-22.55c0.62-4.79-3.38-8.42-7.09-10.65c-9.3-5.35-20.12-7.21-29.49-12.39
	c-4.49-2.48-8.79-6.49-9.41-11.84c-0.13-5.04,1.9-9.8,3.75-14.37c8.5699-19.39,19.75-37.45,30.28-55.8
	c7.55-13.23,15.8-26.1499,21.76-40.21c0.72-2.26,2.8-5.6899-0.33-7c-9.72-4.3099-20.94-1.51-30.89-5.03
	c-2.74-1.0299-5.8-3.33-5.49-6.59c0.55-4.0601,3.09-7.46,5.23-10.83c15.94-23.17,35.5699-43.64,50.6-67.4601
	c2.62-4.71,6.39-10.1,4.19-15.6899c-2.54-6.8301-8.46-11.49-13.49-16.4401c-5.14-4.96-10.93-10.2799-12.22-17.6499
	c-1.22-6.76,3.37-12.4701,7.18-17.4901c12.64-15.61,27.7401-28.95,41.39-43.6299c5-5.7101,10.34-11.2401,14.09-17.88
	c2.6-4.4,2.37-9.8901,0.76-14.5801c-3.71-10.74-12.54-19.23-14.41-30.68c-1.42-6.5,1.11-13.2,5.23-18.2
	c11.54-14.47,27.77-24.22,39.7401-38.27c3.34-3.75,5.94-9.12,3.57-14.06c-4.7401-10.6-15.7401-16.81-20.5-27.42
	c-1.98-4.35-2.1201-9.7,0.5699-13.79c6.31-10.73,14.4301-20.23,22.3-29.81c27.59-32.68,56.77-63.97,86.19-95
	c-5.69-2.3-11.22-5.16-17.34-6.09c-9.19-2.14-19.54-4.57-25.46-12.59c-6-8.78-3.39-20.1-7.17-29.66
	c-3.92-10.04-11.53-17.94-17.17-26.97c-8.59-13.43-13.85-28.61-19.33-43.47c-4.89-13.77-9.7-27.7-11.69-42.23
	c-2.85-14.96-3.55-31.3,3.76-45.15c7-12.8,17.28-23.34,26.76-34.28c7.79-8.59,14.81-17.83,22.5-26.51
	c10.1-11.58,21.13-22.45,29.74-35.24c6.86-10.18,9.87-22.31,16.17-32.78c3.39-5.79,7.6-11.03,11.91-16.15
	c9.31-10.9,19.2-21.3,29.61-31.15c-1.83-2.33-3.54-4.76-5.64-6.85c-2.19,4.67-6.13,8.27-7.97,13.12c-1.21,2.72-2.83,5.76-5.91,6.66
	c-3.82,1.69-8.25-0.74-11.96,1.21c-1.5,0.93-3.03,2.7-4.9301,1.77c1.45-0.98,2.85-2.04,4.25-3.09c3.27-0.88,6.6-1.77,9.5601-3.47
	c1.77-2.36,3.11-5.02,4.48-7.62c1.19-4.73-4.58-6.51-7.62-8.67c-5.4-2.46-10.78-6.86-11.23-13.21c-0.71-3.46,2.4301-6.17,2.01-9.6
	c0.18-2.63-0.6-5.15-1.43-7.59c6.4-1.79,12.31-5.72,15.89-11.38c2.4-3.42,0.16-7.39,0.31-11.12c-0.16-2.09,0.89-3.99,1.01-6.04
	c-0.36-1.97-0.9-3.91-1.21-5.88c-5.41,0.22-7.7,6.99-13.24,6.81c0.97-4.82,6.3-6.83,8.82-10.78c-1.29-6.19-5.28-11.15-7.91-16.74
	c-1.3-2.22,1.11-3.94,2.05-5.72c2.43-3.04,1.08-7.07,1.46-10.6c-0.15-3.39,4.3-4.3,5.13-7.3c1.16-3.84,1.23-7.92,1.05-11.9
	c-1.12-2.05-3.3199-3.15-5.2-4.39c1.79-3.17,3.64-6.3,5.37-9.51c-1.83-2.83-4.02-5.4-6.09-8.04c3.41-3.21,6.76-6.74,8.72-11.05
	c0.16-2.3-0.19-4.61,0.02-6.9c0.96-2.29,2.78-4.67,1.35-7.2c-2.01-4.36-2.13-9.41-0.24-13.84c-0.3-3.28-0.4301-6.61,0.18-9.85
	c1.25-2.46,4.48-2.38,6.72-3.53c0.29-2.66,0.61-5.33,1.3-7.91c1.15-1.14,2.45-2.11,3.65-3.21c-1.11-1.29-2.67-2.07-4.05-3.01
	c0.06-2.16-0.01-4.32,0.18-6.46c1.44-3.18,4.44-5.56,5.2-9.08c0.72-2.26,0.68-4.88,2.54-6.6c4.77-5.37,8.51-11.51,12.49-17.45
	c1.71-2.68,2.5-5.96,4.72-8.29c3.61-2.21,7.69-3.56,11.47-5.48c3.58-2.34,5.35-7.25,9.96-8.01c3.74-0.62,6.67-3.15,10.1-4.48
	c5.6,0.66,11.19-0.47,16.58-1.92c3.79-0.76,5.36-5,9.12-5.82c-0.08,0.91-0.25,2.74-0.34,3.65c1.9901-0.28,3.96-0.63,5.95-1.04
	c-1.4-1.49-3.13-2.58-4.92-3.52c0.96-1.13,1.81-2.45,3.11-3.25c2.8-0.32,5.64,0.14,8.46-0.11c3.89-1.65,7.37-4.12,10.56-6.88
	C925.71,66.73,930.22,68.3,934.44,67.26 M1123.1801,190.74c0.58,4.39,1.33,8.75,1.86,13.14c-0.02,2.36,2.35,3.26,4.2,3.94
	c0.28-2.06,1.52-4.29,0.29-6.26C1127.61,197.85,1126.35,193.63,1123.1801,190.74 M1139.74,228.75c-1.89,0.82-1.13,3.04-1.33,4.66
	c0.6,0.57,1.22,1.14,1.86,1.72c3.58-2.13,6.72,0.59,9.6899,2.39c2.8101-0.62,4.0901-2.97,3.76-5.74c-2.01-1.79-3.62-4.87-6.73-4.47
	C1144.52,227.36,1141.67,226.86,1139.74,228.75 M1142.66,243.91c1.63,5.41,5.76,10.97,12.02,10.81
	c0.34-3.92-1.4701-7.56-3.5601-10.73c-1.63-1.79-3.46-4.19-6.1899-3.71C1142.86,239.8,1141.92,242.34,1142.66,243.91 M807.39,258.99
	c-1.24,3.14-0.26,6.79-2.32,9.66c-1.96,2.94-2.94,6.26-2.52,9.81c1.51-0.05,3.04-0.08,4.57-0.11c1.06-2.16,2.39-4.19,3.25-6.45
	c0.54-3.13-0.92-6.53,0.75-9.43c1.32-2.23,1.42-4.8,1.33-7.32C810.65,256.19,807.86,256.63,807.39,258.99 M822.55,258.87
	c-0.64,3.51,0.1,7.12,0.11,10.67c3.2401,1.04,6.5-2.33,6.05-5.52c0.55-3.07-1.81-5.18-3.6-7.29
	C824.47,257.27,823.19,258.34,822.55,258.87 M837.46,273.71c-0.73,4.39,4.84,6.85,3.83,11.1c-1.84,3.23-5.18,5.4-6.48,8.99
	c-2.22,4.8,2.3,10.82,7.53,10c0.22-5.03,0.86-10.25,3.53-14.64c1.54-2.08,0.25-4.61-0.58-6.69c-1.52-3.54-1.7599-7.42-2.09-11.21
	C841.2,271.86,839.29,272.72,837.46,273.71 M814.57,291.81c0.77,2.98,1.66,5.97,3,8.76c1.3,0.25,2.63,0.23,3.97,0.29
	c2.38-3.19,4.89-6.77,5.1-10.87c-0.67-3.18-2.33-6.08-3.3-9.19C818.07,281.59,814.53,286.7,814.57,291.81 M825.03,300.05
	c-1.52,2.86-1.85,6.12-1.33,9.3c2.64,2.66,6.21,4.31,8.32,7.54c1.3-1.29,2.68-2.52,3.85-3.94c-1.63-2.14-2.8-4.54-3.96-6.94
	C830.07,303.57,827.67,301.56,825.03,300.05 M1131.54,303.07c-0.38,0.76-1.15,2.28-1.53,3.04c3.01,3.36,6.8199,6.82,11.63,6.71
	c0-1.65-0.08-3.29-0.23-4.92C1138.5601,305.5,1135.5601,302.71,1131.54,303.07 M811.61,324.69c-1.35,4.19-5.93,5.63-9.46,7.44
	c-2.16,0.93-2.8,3.39-3.88,5.26c-0.95,1.84-3.13,2.68-4.04,4.53c-0.48,3.71,1.29,7.12,2.51,10.5c4.14,6.1,11.31,8.77,17.43,12.4
	c3.57-1.94,6.61-4.82,8.58-8.4c7.17,3.93,17.73-2.69,17.09-10.92c-1.9301-0.91-4.04-1.16-6.13-1.25c0.08-2.14,0.06-4.28-0.11-6.41
	c-6.27-1.15-10.9-5.56-16.27-8.58c1.08-3.89,1.24-8.14,3.38-11.66c1.14-1.43,0.94-3.28,0.82-4.98c-0.91-0.05-2.73-0.17-3.64-0.23
	C816.27,316.76,812.85,320.17,811.61,324.69 M840.15,320.21c-1.56,1.63-4.21,3.04-3.7,5.67c0.06,2.34-0.33,4.8,0.42,7.07
	c1.58,2.5,4.58,3.62,6.21,6.1c1.54,2.18,3.14,4.81,6.18,4.71c-0.01-2.05,0.01-4.1,0.03-6.14c2.64-1.37,5.57-2.59,7.26-5.2
	c0.39-1.99,0.19-4.14-1.38-5.59c-1.29,1.55-2.38,3.28-3.87,4.64c-1.32,0.15-2.63,0.17-3.93,0.24c0.17-2.54,0.03-5.11,0.49-7.61
	c0.5-2.33,3.04-3.02,4.54-4.57c0.14-1.05,0.2599-2.1,0.36-3.15C848.39,316.72,843.36,316.76,840.15,320.21 M1161.1,318.41
	c0.1,0.94,0.3,2.82,0.4,3.76c1.12,1.58,3.0699,1.45,4.8,1.72c0.48-1.38,0.96-2.77,1.45-4.16
	C1166.35,317.15,1163.4,316.82,1161.1,318.41 M824.25,328.13c2.37,1.47,4.64,3.12,6.98,4.66c0.37-0.39,1.12-1.17,1.49-1.56
	c-1.58-3.6-1.86-7.81-4.64-10.78C825.92,322.49,824.29,325.07,824.25,328.13 M880.51,329.59c0.04,1.25,0.09,2.5,0.19,3.75
	c1.19,0,2.4-0.02,3.61-0.06c0.17-1.36,0.3-2.71,0.44-4.06C883.32,329.32,881.91,329.44,880.51,329.59 M906.88,337.41
	c-1.27,2.47-2.31,5.69-0.55,8.21c1.55,1.98,1.43,4.46,1.41,6.84c2.96,0.29,5.8-0.5,8.57-1.5c-2.15-0.31-4.26-0.77-6.21-1.7
	c1.2-2.07,4.11-3.88,3.25-6.61C912.04,340.21,910.1,336.88,906.88,337.41 M921.65,345.73c1.47-0.09,2.95-0.16,4.45-0.22
	c0.25-1.57,0.46-3.14,0.7-4.71c-1.24-0.94-2.2-2.68-3.93-2.58C920.22,339.8,921.93,343.26,921.65,345.73 M1158.74,490.67
	c-2.3,7.12-4.8199,14.2-6.4399,21.52c-0.74,2.11,1.5699,3.36,2.7799,4.7c2.66,2.15,5.3401,5.33,4.2301,9.02
	c-2.3,8.9-6.8201,17.01-9.88,25.66c-6.9,17.27-7.4501,36.44-15.5801,53.3c-5,11.51-12.73,21.53-18.13,32.84
	c-8.13,16.61-17.0599,33-22.2999,50.83c-3.91,13.2-7.62,26.64-8.02,40.48c-0.13,3.24,0.71,7.21,4.09,8.53
	c7.37,3.48,15.25,5.76,23.0601,8.02c6.98,1.63,14.0699,4.16,21.3199,3.39c6.52-2.46,8.91-9.83,14.08-14.01
	c12.8201-11.13,26.4601-21.48,37.52-34.47c26.89-30.87,53.0601-62.36,78.85-94.14c4.88-6.31,10.2201-12.33,14.3201-19.2
	c-11.8101-8.97-22.3201-19.53-33.03-29.76c-15.4399-14.81-27.66-32.45-40.54-49.42c-11.9199-16.2-23.83-32.4-35.5499-48.75
	C1165.66,469.6,1162.3199,480.18,1158.74,490.67 M859.68,464.67c-9.74,9.26-18.88,19.13-28.26,28.76
	c-18.71,19.63-37.31,39.37-55.23,59.73c-3.87,4.48-7.76,8.96-11.35,13.69c-4.14,5.38-4.59,12.58-4.1801,19.11
	c1.19,14.5,0.17,29.25,3.72,43.48c4.17,17.55,11.3,35.01,24.13,48.04c2.43,2.6,5.74,4.63,9.42,4.42c10.1,0.89,19.15-4.85,29.06-5.48
	c3.91-0.15,7.88,1.8,11.73,0.5c2.66-2.08,4.48-5,6.54-7.64c8.04-11.14,15.63-22.64,22.23-34.72c4.21-7.39,4.97-16.21,4.38-24.55
	c-0.37-4.43-6.56-6.08-5.77-10.87c0.92-4.57,6.78-5.88,8.21-10.18c-0.14-3.98-3.88-7.34-2.75-11.48c0.81-3.93,4.75-5.71,7.11-8.56
	c-0.1-3.31-3.55-5.61-3.56-9.02c0.25-2.95,2.94-4.6801,4.68-6.77c-3.62-10.64-8.92-20.75-10.9-31.89
	c-2.59-12.29-2.13-24.95-4.46-37.27c-1.31-8.99,4.75-16.38,9.85-23.02C869.34,461.36,863.4,460.7,859.68,464.67z M820.35,340.43
	c0.67,0,2.03,0,2.7,0c-0.88,3.88-4.99,6.29-4.8,10.52c-1.29-0.75-2.58-1.49-3.86-2.24c0.07-0.9,0.15-1.8,0.25-2.69
	C817.02,344.7,818.84,342.66,820.35,340.43z"/>
</svg>
